<svg xmlns="http://www.w3.org/2000/svg" viewBox="0 0 64 64" fill="none">
  <defs>
    <linearGradient id="bgGradient" x1="0%" y1="0%" x2="100%" y2="100%">
      <stop offset="0%" style="stop-color:#10b981"/>
      <stop offset="50%" style="stop-color:#0ea5e9"/>
      <stop offset="100%" style="stop-color:#a855f7"/>
    </linearGradient>
  </defs>

  <!-- Background rounded square -->
  <rect x="4" y="4" width="56" height="56" rx="12" fill="url(#bgGradient)"/>

  <!-- Cloud icon (top right) -->
  <path d="M44 28c0-3.3-2.7-6-6-6-1.2 0-2.3.4-3.2 1-1.3-2.4-3.9-4-6.8-4-4.4 0-8 3.6-8 8 0 .3 0 .6.1.9C17.3 28.7 15 31.4 15 34.5c0 3.6 2.9 6.5 6.5 6.5h20c3.6 0 6.5-2.9 6.5-6.5 0-3.1-2.2-5.7-5-6.4-.1-.3 0-.7 0-1.1z" fill="white" fill-opacity="0.95"/>

  <!-- Sprout icon (bottom left) -->
  <path d="M26 52v-8c0-4 3-7 7-7" stroke="white" stroke-width="3" stroke-linecap="round" fill="none" stroke-opacity="0.9"/>
  <path d="M22 44c0-3 2.5-5.5 5.5-5.5S33 41 33 44" stroke="white" stroke-width="3" stroke-linecap="round" fill="none" stroke-opacity="0.9"/>
  <circle cx="26" cy="52" r="2" fill="white" fill-opacity="0.9"/>
</svg>
